<svg width="163" height="53" viewBox="0 0 163 53" fill="none" xmlns="http://www.w3.org/2000/svg">
<g clip-path="url(#clip0_1_464)">
<g clip-path="url(#clip1_1_464)">
<path d="M15.1437 3.11987H0.964722V40.4851H15.1437C20.8668 40.4851 25.7311 38.7141 29.2099 35.3655C32.6948 32.0132 34.5352 27.3224 34.5352 21.8025C34.5352 16.2826 32.6948 11.593 29.2099 8.23823C25.7311 4.88961 20.8668 3.11987 15.1437 3.11987ZM8.92235 10.6053H15.0656C22.1656 10.6053 26.2368 14.6863 26.2368 21.8025C26.2368 28.8133 22.0603 32.9997 15.0656 32.9997H8.92235V10.6053Z" fill="#ED1B2F"/>
<path d="M41.899 1.70312C39.2778 1.70312 37.2255 3.77897 37.2255 6.42986C37.2255 9.051 39.2778 11.1033 41.899 11.1033C44.535 11.1033 46.5997 9.051 46.5997 6.42986C46.5997 3.77897 44.535 1.70312 41.899 1.70312Z" fill="#ED1B2F"/>
<path d="M38.1954 40.4865H45.6809V14.4275H38.1954V40.4865Z" fill="#ED1B2F"/>
<path d="M69.0742 16.7326C67.1904 14.7732 64.599 13.7446 61.523 13.7446C58.3417 13.7446 55.3574 15.0446 53.1205 17.4055C50.7881 19.8643 49.5029 23.2898 49.5029 27.0499C49.5029 30.7975 50.7881 34.2143 53.1205 36.6706C55.3587 39.0291 58.3429 40.3279 61.523 40.3279C64.6275 40.3279 67.147 39.3476 69.0221 37.4118V38.3561C69.0221 42.3777 66.4344 44.7782 62.0993 44.7782C59.2055 44.7782 56.4394 43.9219 53.8814 42.2339L53.5654 42.0257L50.8687 48.1987L51.0818 48.3487C53.8542 50.308 58.0815 51.4767 62.3893 51.4767C71.0496 51.4767 76.4282 46.3385 76.4282 38.0674V14.4262H69.0742V16.7326ZM63.2543 33.3927C59.731 33.3927 57.173 30.7257 57.173 27.0499C57.173 23.358 59.731 20.6786 63.2543 20.6786C66.8198 20.6786 69.3096 23.2985 69.3096 27.0499C69.3096 30.7257 66.7641 33.3927 63.2543 33.3927Z" fill="#ED1B2F"/>
<path d="M85.3612 1.70361C82.7401 1.70361 80.6865 3.77946 80.6865 6.43035C80.6865 9.0515 82.7401 11.1038 85.3612 11.1038C87.9972 11.1038 90.0619 9.0515 90.0619 6.43035C90.0619 3.77946 87.9972 1.70361 85.3612 1.70361Z" fill="#ED1B2F"/>
<path d="M81.6581 40.4865H89.1436V14.4275H81.6581V40.4865Z" fill="#ED1B2F"/>
<path d="M112.053 31.6606C110.574 33.2742 108.741 34.1281 106.753 34.1281C103.259 34.1281 100.724 31.3173 100.724 27.4432C100.724 23.5692 103.27 20.7572 106.779 20.7572C108.79 20.7572 110.394 21.5119 111.977 23.2011L112.182 23.4217L117.581 18.9143L117.396 18.6714C114.978 15.4938 111.274 13.7439 106.962 13.7439C98.8035 13.7439 93.1064 19.3778 93.1064 27.4432C93.1064 35.5087 98.8035 41.1414 106.962 41.1414C111.25 41.1414 114.963 39.4014 117.42 36.2436L117.608 36.0032L112.262 31.4338L112.053 31.6606Z" fill="#ED1B2F"/>
<path d="M162.035 40.1655C162.035 40.1655 160.325 40.4852 158.047 40.4852C150.986 40.4852 148.638 36.8516 148.638 30.6265V4.43359H156.08V29.8519C156.08 32.716 156.907 33.7074 159.258 33.8946C160.658 34.0061 162.035 33.7867 162.035 33.7867V40.1655Z" fill="#ED1B2F"/>
<path d="M139.327 32.3814C137.581 33.8203 135.294 34.6791 133.19 34.6791C129.96 34.6791 127.796 33.037 127.055 30.0441H144.958L144.996 29.7677C145.076 29.179 145.131 28.2334 145.131 27.4167V27.4155C145.117 23.4447 143.898 20.0341 141.602 17.553C139.3 15.062 136.136 13.7446 132.455 13.7446C128.628 13.7446 125.34 15.0682 122.945 17.5716C120.548 20.075 119.281 23.5166 119.281 27.5208C119.281 31.5164 120.585 34.9319 123.051 37.3982C125.499 39.847 128.87 41.1409 132.796 41.1409C136.431 41.1409 139.581 40.3006 142.133 38.5495C143.171 37.8356 143.993 36.9359 144.272 36.6075L139.327 32.3814ZM132.403 20.2857C135.053 20.2857 136.866 21.8621 137.542 24.7361H127.078C127.573 22.6218 128.911 20.2857 132.403 20.2857Z" fill="#ED1B2F"/>
</g>
</g>
<defs>
<clipPath id="clip0_1_464">
<rect width="162" height="52" fill="white" transform="translate(0.5 0.590088)"/>
</clipPath>
<clipPath id="clip1_1_464">
<rect width="162" height="52" fill="white" transform="translate(0.5 0.590088)"/>
</clipPath>
</defs>
</svg>
