<svg width="933" height="890" viewBox="0 0 933 890" fill="none" xmlns="http://www.w3.org/2000/svg">
<path opacity="0.2" d="M434.285 181.599L434.537 183.655M434.285 181.599C444.986 180.33 455.754 179.694 466.532 179.697C606.418 179.697 719.985 285.281 719.985 415.777C719.985 546.285 606.418 651.858 466.51 651.858C326.691 651.858 213.202 546.285 213.201 415.79C213.163 381.898 220.973 348.4 236.095 317.584C251.217 286.769 273.291 259.364 300.806 237.233C302.341 235.999 303.888 234.78 305.448 233.578L305.451 233.576C334.005 211.597 367.393 195.743 403.245 187.13C409.351 185.665 415.509 184.416 421.707 183.386C425.884 182.694 430.079 182.098 434.285 181.599ZM241.51 747.761L241.627 747.749H241.745L466.53 747.541H687.754C696.255 747.541 704.429 750.681 710.48 756.305C716.534 761.931 719.966 769.59 719.985 777.608V861.815C720.005 868.662 722.937 875.247 728.18 880.118C733.427 884.994 740.557 887.749 748.014 887.749H902.091C905.781 887.757 909.435 887.086 912.842 885.778C916.214 884.49 919.302 882.574 921.936 880.137C924.506 877.758 926.563 874.896 927.985 871.72C929.379 868.6 930.101 865.229 930.103 861.821V433.739C929.991 195.429 722.756 2.1084 466.532 2.1084H458.621L454.83 2.20162H454.829L452.349 2.26377H452.336L449.03 2.36632H449.009L446.248 2.48026H446.226C445.227 2.51134 444.229 2.55277 443.243 2.60353H443.238L440.299 2.74855H440.293L439.385 2.7993C438.77 2.83452 438.147 2.86974 437.45 2.90392C436.781 2.9381 436.129 2.97954 435.46 3.02201C435.108 3.0448 434.751 3.06758 434.383 3.08934H434.377L431.746 3.26439H431.729L428.53 3.50264H428.529L426.044 3.68805L426.024 3.68909L422.715 3.96669H422.705L420.388 4.17386H420.377L416.974 4.4929L416.959 4.49497L414.83 4.70939L414.814 4.71146L411.196 5.103H411.19L409.248 5.31949L409.237 5.32053L405.459 5.7618L405.43 5.7649L403.711 5.98968L403.7 5.99072C402.373 6.15645 401.064 6.32218 399.759 6.50553L399.744 6.5076L398.212 6.7127L398.196 6.71477L394.046 7.30209L394.038 7.30312L392.778 7.4875L392.766 7.48854L388.34 8.15872L388.324 8.16183L387.362 8.3141C385.813 8.56167 384.264 8.81959 382.714 9.08787L382.7 9.08994L382.098 9.19042L382.077 9.19353L377.1 10.0719L376.914 10.104H376.743C330.463 18.5616 285.855 33.5906 244.478 54.6637L244.404 54.7051L244.366 54.7269L244.327 54.7476C241.219 56.3217 238.133 57.9343 235.067 59.5849L234.839 59.7113L234.825 59.7196L234.811 59.7269C231.778 61.3357 228.773 62.9957 225.799 64.7061L225.79 64.7113L225.596 64.8252L225.584 64.8325L225.571 64.8397C220.58 67.6828 215.638 70.6095 210.748 73.6185L209.342 74.4917L209.332 74.4979C207.722 75.5256 206.114 76.5584 204.51 77.5961L204.497 77.6033L203.445 78.2746C201.486 79.5304 199.538 80.8024 197.601 82.0906L197.597 82.0927L197.042 82.4676L197.034 82.4728L197.025 82.478C195.266 83.6438 193.518 84.8257 191.782 86.0237L191.781 86.0247L190.756 86.7291L190.749 86.7342C186.826 89.4124 182.954 92.1634 179.136 94.9857L178.812 95.224H178.811C176.906 96.6326 175.011 98.0531 173.124 99.4854L173.059 99.5393L173.027 99.5662L172.995 99.5911C69.2221 178.773 3.04944 299.003 2.96094 433.648V861.816C2.97358 866.892 4.5887 871.862 7.61877 876.108C10.6509 880.355 14.9695 883.692 20.0488 885.688L20.0541 885.69C21.1008 886.105 22.1721 886.456 23.2622 886.743C23.4908 886.803 23.7184 886.86 23.9491 886.913L23.9575 886.916L23.966 886.918C26.2641 887.472 28.6218 887.751 30.988 887.749H185.066C188.745 887.761 192.393 887.093 195.821 885.78C199.195 884.494 202.283 882.578 204.918 880.14C207.489 877.762 209.548 874.899 210.971 871.722C212.366 868.601 213.087 865.23 213.089 861.821V777.654C213.089 776.817 213.139 776.017 213.208 775.233L213.263 775.235C213.276 775.08 213.279 774.88 213.279 774.584V774.464L213.293 774.344C214.101 767.557 217.347 761.245 222.478 756.425C227.605 751.606 234.316 748.561 241.51 747.761Z" stroke="url(#paint0_linear_1_432)" stroke-width="4.21428"/>
<defs>
<linearGradient id="paint0_linear_1_432" x1="158.678" y1="16.549" x2="1008.01" y2="881.486" gradientUnits="userSpaceOnUse">
<stop stop-color="#FFD781" stop-opacity="0.25"/>
<stop offset="0.135" stop-color="#E7BB56"/>
<stop offset="0.797" stop-color="#9875D4"/>
<stop offset="1" stop-color="#D0C1E8" stop-opacity="0.25"/>
</linearGradient>
</defs>
</svg>
