<svg width="215" height="45" viewBox="0 0 215 45" fill="none" xmlns="http://www.w3.org/2000/svg">
<g clip-path="url(#clip0_1_367)">
<mask id="mask0_1_367" style="mask-type:luminance" maskUnits="userSpaceOnUse" x="92" y="0" width="32" height="29">
<path d="M123.031 0.71875H92.0312V28.2743H123.031V0.71875Z" fill="white"/>
</mask>
<g mask="url(#mask0_1_367)">
<path d="M113.559 0.71875H101.503C100.077 0.71875 98.9148 1.89201 98.9686 3.31285C98.9793 3.59809 98.9901 3.88334 99.0062 4.1632H93.3229C92.6071 4.1632 92.0312 4.73906 92.0312 5.45486C92.0312 10.4385 93.8342 13.9045 96.2561 16.2564C98.6403 18.576 101.547 19.7439 103.689 20.3359C104.948 20.6858 105.809 21.7352 105.809 22.7901C105.809 23.9149 104.894 24.8299 103.769 24.8299H102.365C101.412 24.8299 100.642 25.5994 100.642 26.5521C100.642 27.5047 101.412 28.2743 102.365 28.2743H112.698C113.651 28.2743 114.42 27.5047 114.42 26.5521C114.42 25.5994 113.651 24.8299 112.698 24.8299H111.293C110.168 24.8299 109.253 23.9149 109.253 22.7901C109.253 21.7352 110.109 20.6804 111.374 20.3359C113.521 19.7439 116.428 18.576 118.812 16.2564C121.228 13.9045 123.031 10.4385 123.031 5.45486C123.031 4.73906 122.455 4.1632 121.74 4.1632H116.056C116.072 3.88334 116.083 3.60347 116.094 3.31285C116.148 1.89201 114.985 0.71875 113.559 0.71875ZM94.663 6.74653H99.2054C99.6951 11.5957 100.777 14.8356 101.999 17.0045C100.659 16.4125 99.2646 15.5783 98.059 14.4051C96.3368 12.7312 94.9375 10.3148 94.6684 6.74653H94.663ZM117.009 14.4051C115.803 15.5783 114.409 16.4125 113.069 17.0045C114.291 14.8356 115.373 11.5957 115.863 6.74653H120.405C120.13 10.3148 118.731 12.7312 117.014 14.4051H117.009Z" fill="#B1EEF0"/>
</g>
</g>
<defs>
<clipPath id="clip0_1_367">
<rect width="31" height="28.0938" fill="white" transform="translate(92.0312 0.71875)"/>
</clipPath>
</defs>
</svg>
