<svg width="72" height="24" viewBox="0 0 72 24" fill="none" xmlns="http://www.w3.org/2000/svg">
<g clip-path="url(#clip0_1_582)">
<path fill-rule="evenodd" clip-rule="evenodd" d="M69.8937 14.024V13.684H66.1797C64.2037 13.684 62.9157 14.623 62.9157 16.16C62.9157 17.516 63.9937 18.376 65.6787 18.376C68.3397 18.376 69.8937 16.726 69.8937 14.024ZM71.9997 11.468V19.941H69.8937V17.671C69.1817 19.184 67.4177 20.148 65.3627 20.148C62.5727 20.148 60.7547 18.587 60.7547 16.188C60.7547 13.684 62.8347 12.091 66.0487 12.091H69.0487C69.6347 12.091 69.8937 11.804 69.8937 11.386C69.8937 9.588 68.6037 8.362 66.3377 8.362C64.3877 8.362 62.8627 9.562 62.7577 10.996H60.7547C60.9927 8.46 63.4147 6.591 66.3897 6.591C69.8407 6.595 71.9997 8.548 71.9997 11.468ZM55.8597 13.37C55.8597 10.4 54.1207 8.472 51.4607 8.472C48.8007 8.472 47.0367 10.399 47.0367 13.37C47.0367 16.341 48.7917 18.273 51.4607 18.273C54.1307 18.273 55.8597 16.335 55.8597 13.37ZM44.8787 13.37C44.8787 9.539 47.1427 6.595 51.2757 6.595C53.1477 6.595 54.8857 7.533 55.6747 8.935V0H57.7827V19.94H55.6747V17.777C54.8947 19.211 53.1397 20.147 51.2757 20.147C47.1427 20.147 44.8787 17.202 44.8787 13.37ZM40.1077 14.024V13.684H36.4027C34.4277 13.684 33.1367 14.623 33.1367 16.16C33.1367 17.516 34.2167 18.376 35.9037 18.376C38.5477 18.376 40.1077 16.726 40.1077 14.024ZM42.2147 11.468V19.941H40.1097V17.671C39.3997 19.184 37.6347 20.148 35.5797 20.148C32.7897 20.148 30.9727 18.587 30.9727 16.188C30.9727 13.684 33.0527 12.091 36.2637 12.091H39.2667C39.8517 12.091 40.1097 11.804 40.1097 11.386C40.1097 9.588 38.8197 8.362 36.5547 8.362C34.6047 8.362 33.0777 9.562 32.9727 10.996H30.9727C31.2087 8.46 33.6327 6.591 36.6077 6.591C40.0567 6.595 42.2177 8.548 42.2177 11.468H42.2147Z" fill="white"/>
<path d="M6.048 20.225C5.87836 20.245 5.72053 20.322 5.60029 20.4433C5.48005 20.5647 5.40451 20.7232 5.386 20.893C5.386 20.903 5.386 20.915 5.384 20.926V20.916C5.38217 20.9359 5.38117 20.956 5.381 20.976V23.245C5.381 23.3442 5.36144 23.4425 5.32343 23.5342C5.28543 23.6258 5.22973 23.7091 5.15951 23.7792C5.0893 23.8493 5.00595 23.9049 4.91423 23.9428C4.82252 23.9807 4.72423 24.0001 4.625 24H0.757001C0.632205 24.0003 0.509297 23.9695 0.399329 23.9105C0.28936 23.8515 0.195779 23.7661 0.127001 23.662C0.0446967 23.5385 0.000532018 23.3934 9.13901e-07 23.245V11.7C-0.000684242 9.9678 0.383888 8.25713 1.12586 6.69189C1.86784 5.12665 2.94864 3.74602 4.29 2.65L4.292 2.647L4.436 2.531L4.444 2.525C4.54 2.448 4.638 2.373 4.737 2.301L4.763 2.281L4.895 2.186L4.91 2.176C4.958 2.14 5.008 2.106 5.057 2.072L5.084 2.054L5.205 1.97L5.241 1.946C5.364 1.864 5.489 1.786 5.615 1.708L5.62 1.705C5.695 1.659 5.77 1.614 5.848 1.569L5.854 1.566C5.932 1.521 6.01 1.477 6.088 1.435L6.091 1.433C7.13546 0.861475 8.26164 0.454043 9.43 0.224996H9.435L9.562 0.199996L9.577 0.196996L9.695 0.176996L9.719 0.171996L9.831 0.153996L9.863 0.148996L9.968 0.132996L10.007 0.126996L10.107 0.112996L10.15 0.106996L10.246 0.0949956L10.296 0.0889956L10.386 0.0789956L10.441 0.0729956L10.527 0.0639956L10.586 0.0579956L10.67 0.0509956L10.733 0.0459956L10.813 0.0389956L10.88 0.0349956L10.958 0.0299956L11.029 0.0249956L11.103 0.0219956C11.1283 0.0203788 11.1537 0.0190454 11.179 0.0179956L11.249 0.0149956L11.333 0.0119956L11.395 0.0109956L11.491 0.00799561H11.691C18.149 0.00799561 23.378 5.24299 23.381 11.702V23.244C23.3807 23.4443 23.301 23.6364 23.1592 23.7779C23.0175 23.9195 22.8253 23.999 22.625 23.999H18.757C18.6577 23.9991 18.5594 23.9797 18.4676 23.9418C18.3758 23.904 18.2924 23.8484 18.2221 23.7783C18.1518 23.7082 18.096 23.6249 18.0579 23.5332C18.0198 23.4416 18.0001 23.3433 18 23.244V20.974C17.9995 20.7737 17.9196 20.5819 17.7779 20.4404C17.6362 20.2989 17.4442 20.2193 17.244 20.219H11.691L6.048 20.225ZM18 11.22C18.015 10.382 17.8629 9.54948 17.5526 8.77095C17.2423 7.99241 16.78 7.28349 16.1927 6.68557C15.6055 6.08765 14.905 5.61271 14.1321 5.28848C13.3593 4.96425 12.5296 4.79723 11.6915 4.79716C10.8534 4.7971 10.0237 4.96399 9.25082 5.28809C8.47793 5.6122 7.77735 6.08703 7.18998 6.68486C6.6026 7.28268 6.14021 7.99153 5.82979 8.77002C5.51937 9.54851 5.36715 10.381 5.382 11.219C5.41145 12.8728 6.08909 14.4489 7.26905 15.608C8.44901 16.7672 10.0369 17.4167 11.691 17.4167C13.3451 17.4167 14.933 16.7672 16.1129 15.608C17.2929 14.4489 17.9706 12.8728 18 11.219V11.22Z" fill="white"/>
</g>
<defs>
<clipPath id="clip0_1_582">
<rect width="72" height="24" fill="white"/>
</clipPath>
</defs>
</svg>
