<svg width="161" height="36" viewBox="0 0 161 36" fill="none" xmlns="http://www.w3.org/2000/svg">
<g clip-path="url(#clip0_1_507)">
<mask id="mask0_1_507" style="mask-type:luminance" maskUnits="userSpaceOnUse" x="0" y="0" width="160" height="36">
<path d="M159.933 0.345215H0.345581V35.3111H159.933V0.345215Z" fill="white"/>
</mask>
<g mask="url(#mask0_1_507)">
<path d="M114.515 16.8222L115.577 9.73318C113.262 8.48785 110.032 7.43408 106.319 7.43408C98.9905 7.43408 94.9895 11.2659 94.9895 16.1995C94.9895 21.4204 99.7624 22.9532 103.041 24.0548C105.018 24.7733 106.561 25.3002 106.561 26.3539C106.561 27.2161 105.548 28.0304 103.523 28.0304C100.582 28.0304 96.4834 26.3539 93.8322 24.0069L92.6757 31.7665C95.4231 33.7782 99.3769 34.9757 103.571 34.9757C110.851 34.9757 114.998 31.4312 114.998 26.4019C114.998 21.133 110.514 19.3608 106.898 18.0676C104.873 17.349 103.427 16.918 103.427 15.9121C103.427 15.05 104.439 14.3794 106.513 14.3794C109.502 14.3794 112.587 15.7685 114.515 16.8222Z" fill="#FF0000"/>
<path d="M21.6557 8.15256L21.1736 10.4517C19.7753 7.72148 15.629 7.43408 13.4111 7.43408C6.46837 7.43408 0.393433 14.044 0.393433 23.0969C0.393433 30.3775 4.8291 34.9757 10.3736 34.9757C13.4594 34.9757 16.1111 34.2573 18.2808 31.7186L17.7022 34.2573H18.9557H26.4289L30.4306 8.10466H21.6557V8.15256ZM14.3755 26.2581C11.3862 26.2581 9.12011 23.9591 9.12011 21.0373C9.12011 18.1634 11.4344 15.8164 14.3755 15.8164C17.2683 15.8164 19.5825 18.1634 19.5825 21.0373C19.5825 23.9591 17.2683 26.2581 14.3755 26.2581Z" fill="#FF0000"/>
<path d="M86.0212 8.15256H85.1051L84.623 10.4517C83.2248 7.72148 79.0784 7.43408 76.8605 7.43408C69.9178 7.43408 63.8428 14.044 63.8428 23.0969C63.8428 30.3775 68.2785 34.9757 73.8231 34.9757C76.9088 34.9757 79.5605 34.2573 81.7301 31.7186L81.1515 34.2573H82.4052H89.878L93.8798 8.10466H86.0212V8.15256ZM77.8248 26.2581C74.8356 26.2581 72.5695 23.9591 72.5695 21.0373C72.5695 18.1634 74.8838 15.8164 77.8248 15.8164C80.7176 15.8164 83.0319 18.1634 83.0319 21.0373C83.0802 23.9591 80.7176 26.2581 77.8248 26.2581Z" fill="#FF0000"/>
<path d="M151.785 8.15256H150.869L150.387 10.4517C148.989 7.72148 144.843 7.43408 142.624 7.43408C135.682 7.43408 129.607 14.044 129.607 23.0969C129.607 30.3775 134.043 34.9757 139.587 34.9757C142.673 34.9757 145.325 34.2573 147.495 31.7186L146.915 34.2573H148.169H155.643L159.644 8.10466H151.785V8.15256ZM143.589 26.2581C140.6 26.2581 138.334 23.9591 138.334 21.0373C138.334 18.1634 140.648 15.8164 143.589 15.8164C146.482 15.8164 148.797 18.1634 148.797 21.0373C148.797 23.9591 146.482 26.2581 143.589 26.2581Z" fill="#FF0000"/>
<path d="M38.8678 9.11107C41.291 9.11107 43.2554 7.15959 43.2554 4.75232C43.2554 2.34505 41.291 0.393555 38.8678 0.393555C36.4447 0.393555 34.4804 2.34505 34.4804 4.75232C34.4804 7.15959 36.4447 9.11107 38.8678 9.11107Z" fill="#FF0000"/>
<path d="M38.8203 10.7873C36.9399 10.7873 35.2524 9.92504 34.1435 8.63184L30.2382 34.2575H39.0131L42.822 9.35029C41.7131 10.2604 40.3631 10.7873 38.8203 10.7873Z" fill="#FF0000"/>
<path d="M59.3588 16.7746C61.782 16.7746 63.7462 14.8231 63.7462 12.4159C63.7462 10.0086 61.782 8.05713 59.3588 8.05713C56.9356 8.05713 54.9714 10.0086 54.9714 12.4159C54.9714 14.8231 56.9356 16.7746 59.3588 16.7746Z" fill="#FF0000"/>
<path d="M53.2357 12.4159C53.2357 10.7393 53.9107 9.20661 55.0198 8.10498H46.7752L42.7733 34.2575H51.5483L54.3447 15.8645C53.6215 14.9066 53.2357 13.7092 53.2357 12.4159Z" fill="#FF0000"/>
<path d="M125.027 9.06271C127.45 9.06271 129.413 7.11125 129.413 4.70397C129.413 2.29669 127.45 0.345215 125.027 0.345215C122.603 0.345215 120.639 2.29669 120.639 4.70397C120.639 7.11125 122.603 9.06271 125.027 9.06271Z" fill="#FF0000"/>
<path d="M125.026 10.7869C123.098 10.7869 121.362 9.87685 120.205 8.48779L116.251 34.2571H125.026L128.835 9.44572C127.774 10.308 126.472 10.7869 125.026 10.7869Z" fill="#FF0000"/>
</g>
</g>
<defs>
<clipPath id="clip0_1_507">
<rect width="159.969" height="35.84" fill="white" transform="translate(0.345581)"/>
</clipPath>
</defs>
</svg>
