<svg width="1440" height="1140" viewBox="0 0 1440 1140" fill="none" xmlns="http://www.w3.org/2000/svg">
<path opacity="0.5" d="M355.186 888.024C355.186 943.082 309.854 987.714 253.934 987.714C198.014 987.714 152.682 943.082 152.682 888.024C152.682 832.967 198.014 788.334 253.934 788.334C309.854 788.334 355.186 832.967 355.186 888.024ZM355.186 888.024L1398.24 888.051M1398.24 888.051C1398.24 943.109 1443.57 987.741 1499.49 987.741C1555.42 987.741 1600.75 943.109 1600.75 888.051C1600.75 832.996 1555.42 788.363 1499.49 788.363C1443.57 788.363 1398.24 832.996 1398.24 888.051ZM0 151.426H1747M0 569.175H1747M253.934 1138.83V1.10006M432.33 1138.83V1.10006M1499.49 1138.83V1.10006M1321.1 1138.83V1.10006M830.577 1.89125L253.934 569.175L833.321 1138.5M922.117 1.03201L1499.49 569.175L920.442 1138.83M355.186 251.116C355.186 306.174 309.854 350.806 253.934 350.806C198.014 350.806 152.682 306.174 152.682 251.116C152.682 196.059 198.014 151.426 253.934 151.426C309.854 151.426 355.186 196.059 355.186 251.116ZM1600.75 251.116C1600.75 306.174 1555.42 350.806 1499.49 350.806C1443.57 350.806 1398.24 306.174 1398.24 251.116C1398.24 196.059 1443.57 151.426 1499.49 151.426C1555.42 151.426 1600.75 196.059 1600.75 251.116Z" stroke="#2D3344" stroke-width="1.60682" stroke-linecap="round"/>
</svg>
