<svg width="17" height="16" viewBox="0 0 17 16" fill="none" xmlns="http://www.w3.org/2000/svg">
<g clip-path="url(#clip0_1_313)">
<mask id="mask0_1_313" style="mask-type:luminance" maskUnits="userSpaceOnUse" x="0" y="0" width="17" height="16">
<path d="M0 0H17V16H0V0Z" fill="white"/>
</mask>
<g mask="url(#mask0_1_313)">
<path d="M2.70201 3.9402C2.94758 3.93889 3.19049 3.88922 3.41687 3.79403C3.64325 3.69885 3.84866 3.56 4.02138 3.38543C4.1941 3.21085 4.33074 3.00397 4.4235 2.77658C4.51626 2.5492 4.56333 2.30577 4.56201 2.0602C4.56346 1.81446 4.51646 1.57084 4.42369 1.34328C4.33093 1.11572 4.19422 0.908668 4.02138 0.733974C3.84855 0.55928 3.64297 0.420366 3.41641 0.325173C3.18985 0.229981 2.94675 0.180378 2.70101 0.179199C2.45544 0.180509 2.21253 0.230176 1.98615 0.325364C1.75977 0.420553 1.55436 0.559398 1.38164 0.733973C1.20893 0.908548 1.07228 1.11543 0.979523 1.34282C0.886761 1.5702 0.839695 1.81363 0.841012 2.0592C0.839431 2.30494 0.886303 2.54858 0.978946 2.7762C1.07159 3.00381 1.20819 3.21093 1.38093 3.38572C1.55368 3.56051 1.75918 3.69953 1.98569 3.79484C2.21219 3.89016 2.45527 3.93989 2.70101 3.9412L2.70201 3.9402ZM6.31801 5.3672V15.8042H9.52001V10.6432C9.52001 9.2812 9.77401 7.9632 11.443 7.9632C13.089 7.9632 13.11 9.5192 13.11 10.7292V15.8052H16.315V10.0802C16.315 7.2692 15.717 5.1082 12.468 5.1082C10.908 5.1082 9.86301 5.9742 9.43501 6.7942H9.39201V5.3672H6.31801ZM1.09801 5.3672H4.30601V15.8042H1.09701V5.3672H1.09801Z" fill="white"/>
</g>
</g>
<defs>
<clipPath id="clip0_1_313">
<rect width="17" height="16" fill="white"/>
</clipPath>
</defs>
</svg>
