<svg width="163" height="47" viewBox="0 0 163 47" fill="none" xmlns="http://www.w3.org/2000/svg">
<g clip-path="url(#clip0_1_479)">
<g clip-path="url(#clip1_1_479)">
<mask id="mask0_1_479" style="mask-type:luminance" maskUnits="userSpaceOnUse" x="0" y="0" width="163" height="47">
<path d="M162.5 0.320068H0.5V46.3201H162.5V0.320068Z" fill="white"/>
</mask>
<g mask="url(#mask0_1_479)">
<path d="M2.7801 12.1793H6.80328C8.01023 12.1793 9.0831 13.118 9.0831 14.325V17.4094C12.1675 13.7886 15.7884 12.0452 19.9456 12.0452C22.2254 12.0452 24.103 12.4475 25.8463 13.3863C27.4556 14.325 28.7967 15.6661 29.8695 17.4094C31.3447 15.6661 33.088 14.325 34.8314 13.3863C36.5748 12.4475 38.4523 12.0452 40.598 12.0452C43.146 12.0452 45.2917 12.5816 47.1691 13.5203C48.9125 14.4591 50.2536 15.9343 51.1923 17.9459C51.8629 19.421 52.1311 21.7008 52.1311 24.9193V44.4988C52.1311 45.5717 51.1923 46.2422 50.1195 46.2422H44.7552C43.6824 46.2422 42.7437 45.5717 42.7437 44.4988V27.1992C42.7437 23.8465 42.4754 21.7008 41.8049 20.7621C41.0003 19.5551 39.6593 18.8846 37.9159 18.8846C36.5748 18.8846 35.3678 19.2869 34.295 19.9574C33.088 20.7621 32.2834 21.8349 31.8811 23.3101C31.3447 24.7853 31.0764 27.065 31.0764 30.2836V44.4988C31.0764 45.5717 30.1377 46.2422 29.0648 46.2422H23.7006C22.6278 46.2422 21.689 45.5717 21.689 44.4988V28.0038C21.689 24.7853 21.555 22.6395 21.1526 21.7008C20.8844 20.7621 20.3479 20.0915 19.6774 19.5551C19.0069 19.1528 18.0682 18.8846 16.8612 18.8846C15.3861 18.8846 14.1791 19.2869 12.9721 19.9574C11.7652 20.7621 10.9605 21.7008 10.5582 23.176C10.0218 24.517 9.75363 26.931 9.75363 30.1495V44.6329C9.75363 45.7058 8.81489 46.3763 7.74204 46.3763H2.3778C1.30495 46.3763 0.366211 45.5717 0.366211 44.6329V14.4591C0.500317 13.2521 1.57315 12.1793 2.7801 12.1793Z" fill="white"/>
<path d="M98.1299 44.4989V2.3896C98.1299 1.18265 99.2028 0.243896 100.41 0.243896H105.103C106.31 0.243896 107.383 1.18265 107.383 2.3896V24.7853L118.245 12.984C118.648 12.4476 119.318 12.1794 119.989 12.1794H128.035C128.84 12.1794 129.376 13.1181 128.706 13.7886L117.575 25.1876L128.706 43.6942C129.51 44.9012 128.571 46.3764 126.962 46.3764H121.598C120.927 46.3764 120.257 46.1082 119.855 45.5718L111.674 31.4906L107.383 35.782V44.633C107.383 45.7059 106.444 46.3764 105.371 46.3764H100.007C99.0687 46.2423 98.1299 45.5717 98.1299 44.4989Z" fill="white"/>
<path d="M153.247 29.6128C152.04 30.0151 150.163 30.4174 147.615 30.9538C145.067 31.4902 143.323 32.0267 142.519 32.5631C141.312 33.3677 140.641 34.4406 140.641 35.6475C140.641 36.8545 141.177 37.9274 142.116 38.8661C143.055 39.8048 144.262 40.2072 145.871 40.2072C147.48 40.2072 149.09 39.6707 150.699 38.5979C151.772 37.7932 152.576 36.8545 152.845 35.6475C153.113 34.8429 153.247 33.5019 153.247 31.3562V29.6128ZM160.489 46.2419H156.734C155.929 46.2419 155.124 45.0349 154.856 44.3644C154.722 43.9621 154.588 43.5598 154.454 43.0234C154.32 42.4869 154.186 42.0846 154.186 41.9505C152.576 43.4257 150.967 44.4985 149.09 45.3032C147.346 45.9737 145.335 46.2419 143.323 46.2419C139.702 46.2419 136.886 45.4373 134.74 43.5598C132.595 41.6823 131.656 39.2684 131.656 36.4522C131.656 34.5747 132.192 32.8313 133.131 31.3562C134.07 29.881 135.411 28.674 137.154 28.0035C138.898 27.1989 141.312 26.5283 144.53 25.9919C148.821 25.1873 151.906 24.5168 153.515 23.8462V22.9075C153.515 21.1641 153.113 19.9572 152.174 19.2866C151.235 18.6161 149.626 18.2138 147.212 18.2138C145.603 18.2138 144.262 18.482 143.323 19.1525C142.787 19.5548 142.25 20.0912 141.714 20.8959C141.177 21.7005 140.239 22.237 139.3 22.1029L135.411 21.4323C133.936 21.1641 133.131 19.6889 133.802 18.3479C134.74 16.4704 136.081 15.6658 137.691 14.4588C139.97 12.8495 143.457 12.179 148.017 12.179C152.174 12.179 155.259 12.5813 157.27 13.52C159.282 14.4588 160.757 15.6658 161.561 17.1409C162.366 18.6161 162.768 20.4936 162.768 24.3826L162.634 34.7088L162.768 44.4985C162.5 45.4373 161.562 46.2419 160.489 46.2419Z" fill="white"/>
<path d="M89.9487 33.234C89.144 32.5635 88.0712 32.2953 86.9983 32.5635C85.9255 32.6976 84.9867 33.2341 84.3162 34.1728C82.4387 36.7208 79.0862 38.33 75.1971 38.33C71.0398 38.4642 67.2847 36.7208 65.2731 34.0387C64.6026 33.234 63.6639 32.6976 62.5911 32.5635C61.5182 32.4294 60.4453 32.6976 59.6407 33.3681C57.8973 34.7092 57.6292 37.2572 58.9702 38.8665C62.457 43.4261 68.4918 46.2423 75.063 46.2423H75.3311C81.7682 46.1082 87.4007 43.4261 90.7533 38.7324C92.0943 36.989 91.692 34.5751 89.9487 33.234Z" fill="#001DF5"/>
<path d="M74.795 24.7852C69.9672 24.7852 66.0781 21.0302 66.0781 16.4706C66.0781 11.911 69.9672 8.15598 74.795 8.15598C79.6228 8.15598 83.5119 11.911 83.5119 16.4706C83.5119 21.0302 79.6228 24.7852 74.795 24.7852ZM74.795 0.109619C65.4076 0.109619 57.7635 7.48546 57.7635 16.3365C57.7635 25.1875 65.4076 32.5633 74.795 32.5633C84.1824 32.5633 91.8264 25.1875 91.8264 16.3365C91.8264 7.48546 84.1824 0.109619 74.795 0.109619Z" fill="white"/>
</g>
</g>
</g>
<defs>
<clipPath id="clip0_1_479">
<rect width="162" height="46" fill="white" transform="translate(0.5 0.320068)"/>
</clipPath>
<clipPath id="clip1_1_479">
<rect width="162" height="46" fill="white" transform="translate(0.5 0.320068)"/>
</clipPath>
</defs>
</svg>
