<svg width="163" height="51" viewBox="0 0 163 51" fill="none" xmlns="http://www.w3.org/2000/svg">
<g clip-path="url(#clip0_1_456)">
<g clip-path="url(#clip1_1_456)">
<g clip-path="url(#clip2_1_456)">
<path d="M115.655 12.7395V15.9516H121.282C121.118 17.5342 120.344 18.9058 118.984 20.0547C117.624 21.1684 115.702 21.7662 114.365 21.7428C113.134 21.7428 111.927 21.5083 110.966 21.0863C109.876 20.5588 108.926 19.9961 108.152 19.1403C106.769 17.6163 105.925 15.553 105.925 13.2202C105.925 8.531 109.418 4.89688 113.92 4.89688C117.484 4.89688 119.957 7.12425 120.836 9.58607H124.623C124.295 8.531 123.802 7.45249 123.134 6.42087C121.259 3.5839 118.093 1.49721 113.873 1.49721C113.052 1.49721 112.115 1.70822 111.857 1.73167C109.594 2.20059 107.636 3.25566 105.913 4.96722C103.651 7.31181 102.455 9.89087 102.467 13.3726C102.467 16.1861 103.451 18.7651 105.081 20.7581C105.315 21.0746 105.585 21.3442 105.866 21.6607C106.136 21.9186 106.417 22.1648 106.687 22.3993C108.668 24.0288 111.2 25.0487 113.979 25.0487C114.916 25.0487 115.854 24.9314 116.698 24.7556C121.622 23.7005 125.139 19.8319 125.139 13.3843V12.8802H115.76L115.655 12.7395ZM11.6368 5.09617V24.5211H8.19028V5.09617H0.5V1.88407H19.3154V5.09617H11.6368ZM67.3679 24.6032V0.43042L83.8974 17.6984V1.95441H87.3205V25.9865L70.791 8.75374V24.6032H67.3679ZM138.808 13.0912C138.808 9.92604 139.98 7.18286 142.325 4.88515C144.634 2.61089 147.436 1.46204 150.707 1.46204C153.93 1.46204 156.709 2.63434 159.03 4.92032C161.328 7.22975 162.5 10.0081 162.5 13.2436C162.5 16.4909 161.328 19.2458 158.983 21.5083C156.639 23.7943 153.825 24.9314 150.543 24.9314C147.612 24.9314 144.916 23.9233 142.571 21.8835C139.992 19.6561 138.702 16.7253 138.702 13.0912H138.808ZM142.243 13.1381C142.243 15.6351 143.181 17.6866 144.822 19.3044C146.58 20.9105 148.456 21.7193 150.683 21.7193C153.028 21.7193 155.091 20.8987 156.721 19.2575C158.362 17.6163 159.182 15.5765 159.182 13.1967C159.182 10.7349 158.362 8.74202 156.756 7.1008C155.15 5.45958 153.157 4.63897 150.777 4.63897C148.432 4.63897 146.44 5.45958 144.798 7.1008C143.192 8.74202 142.372 10.7349 142.372 13.0795L142.243 13.1381ZM41.8822 0.477312L30.675 24.5094H41.6946V21.3794H35.7862L41.8001 8.13242L48.9277 24.5446H52.679L41.8822 0.489035V0.477312ZM53.8396 44.7081V44.673C53.8396 41.4843 56.2428 38.8701 59.6425 38.8701C61.7175 38.8701 62.9718 39.5735 64.0503 40.6285L62.878 42.0353C62.0105 41.2147 61.0023 40.6285 59.7128 40.6285C57.6027 40.6285 56.0553 42.387 56.0553 44.6143C56.0553 46.8417 57.6144 48.6002 59.7597 48.6002C61.1665 48.6002 62.034 48.0492 62.9953 47.1465L64.2848 48.436C63.1125 49.6435 61.823 50.4289 59.7128 50.4289C56.4304 50.4289 53.992 47.8851 53.992 44.6847L53.8396 44.7081ZM72.5261 38.9639H74.3548L79.3019 50.2883H77.2152L76.0664 47.592H70.7559L69.607 50.2883H67.5789L72.5261 38.9756V38.9639ZM75.3396 45.8218L73.417 41.3671L71.4827 45.857H75.3513L75.3396 45.8218ZM83.6395 39.0811H88.6452C90.0519 39.0811 91.107 39.4914 91.8104 40.1948C92.3965 40.8044 92.7482 41.6367 92.7482 42.6214C92.7482 44.3799 91.5994 45.5522 90.0519 46.0211L93.0999 50.2414H90.7553L87.9652 46.2556H85.5034V50.171H83.5105V38.999L83.6395 39.0811ZM88.5162 44.6378C89.923 44.6378 90.8139 43.9344 90.8139 42.7621C90.8139 41.5898 89.9464 40.8864 88.4928 40.8864H85.6089V44.6378H88.5162ZM98.9731 39.1163H103.17C106.687 39.1163 109.149 41.5312 109.149 44.6847V44.7316C109.149 47.8968 106.687 50.3586 103.17 50.3586H98.9731V39.1163ZM100.966 40.8982V48.4946H103.17C105.515 48.4946 107.074 46.8886 107.074 44.6847V44.6612C107.074 42.4573 105.55 40.8395 103.205 40.8395H100.978L100.966 40.8982ZM112.923 40.3589C112.923 40.5582 112.888 40.7457 112.806 40.9099C112.748 41.074 112.654 41.2264 112.537 41.3436C112.419 41.4609 112.267 41.5429 112.115 41.6133C111.997 41.6484 111.88 41.6836 111.646 41.6836C111.528 41.6836 111.294 41.5664 111.177 41.5664C111.036 41.4491 110.895 41.3319 110.778 41.2147C110.661 41.0974 110.579 40.9568 110.509 40.7926C110.438 40.6168 110.391 40.441 110.391 40.2417C110.391 40.0072 110.45 39.8314 110.509 39.6555C110.591 39.5031 110.684 39.3624 110.802 39.2452C110.919 39.128 111.083 39.0107 111.247 38.9521C111.411 38.9287 111.575 38.8935 111.751 38.8935C111.904 38.8935 112.103 38.9287 112.22 38.9873C112.408 39.1045 112.572 39.2218 112.689 39.339C112.806 39.4562 112.923 39.5735 112.923 39.761C113.041 39.9369 113.041 40.1127 113.041 40.3237L112.923 40.3589ZM112.642 40.3589C112.642 40.1948 112.619 40.0541 112.56 39.9134C112.501 39.7727 112.443 39.6555 112.326 39.5617C112.208 39.4445 112.091 39.3859 111.974 39.3273C111.857 39.2804 111.739 39.2452 111.505 39.2452C111.388 39.2452 111.2 39.2452 111.071 39.3624C110.954 39.4328 110.837 39.4797 110.743 39.5969C110.626 39.7141 110.567 39.8314 110.509 39.9486C110.462 40.0658 110.426 40.2417 110.426 40.4175C110.426 40.5582 110.426 40.7106 110.497 40.8395C110.532 40.9568 110.614 41.074 110.696 41.1912C110.813 41.3085 110.931 41.3788 111.048 41.4257C111.165 41.496 111.329 41.5195 111.482 41.5195C111.634 41.5195 111.751 41.5195 111.88 41.4491C111.997 41.3905 112.115 41.3319 112.232 41.2147C112.349 41.0974 112.408 40.9802 112.466 40.863C112.513 40.7458 112.537 40.5816 112.537 40.3941L112.642 40.3589ZM111.353 41.1326H111.095V39.6086H111.681C111.845 39.6086 111.986 39.6555 112.079 39.7259C112.161 39.7845 112.197 39.89 112.197 40.0541C112.197 40.1713 112.173 40.2886 112.079 40.3472C112.021 40.4058 111.927 40.441 111.822 40.4644L112.232 41.1209H111.997L111.646 40.4175H111.411V41.1209L111.353 41.1326ZM111.611 40.2768C111.657 40.2768 111.704 40.2768 111.728 40.2768C111.786 40.2768 111.822 40.183 111.845 40.1596C111.88 40.1596 111.915 40.1244 111.927 40.101C111.95 40.0541 111.962 40.0189 111.962 39.9838C111.962 39.9134 111.962 39.8665 111.927 39.8665C111.927 39.8196 111.892 39.8079 111.857 39.7845C111.739 39.7845 111.739 39.7845 111.739 39.7845C111.622 39.7845 111.622 39.7845 111.622 39.7845H111.271V40.2534H111.505L111.611 40.2768Z" fill="white"/>
</g>
</g>
</g>
<defs>
<clipPath id="clip0_1_456">
<rect width="162" height="50" fill="white" transform="translate(0.5 0.429932)"/>
</clipPath>
<clipPath id="clip1_1_456">
<rect width="162" height="50" fill="white" transform="translate(0.5 0.429932)"/>
</clipPath>
<clipPath id="clip2_1_456">
<rect width="162" height="50" fill="white" transform="translate(0.5 0.429932)"/>
</clipPath>
</defs>
</svg>
