<svg width="17" height="16" viewBox="0 0 17 16" fill="none" xmlns="http://www.w3.org/2000/svg">
<path d="M14.726 4.74012C14.736 4.90012 14.736 5.05712 14.736 5.21612C14.736 10.0631 11.546 15.6491 5.71299 15.6491C3.98399 15.6531 2.29199 15.0811 0.842987 14.0021C1.09699 14.0371 1.34299 14.0481 1.60799 14.0481C3.03799 14.0511 4.42699 13.4981 5.54599 12.4811C4.86893 12.4613 4.21999 12.206 3.71099 11.7591C3.16291 11.2771 2.76944 10.644 2.57999 9.93912C3.05699 10.0351 3.54699 10.0111 4.01499 9.86912C3.29499 9.70112 2.64799 9.25112 2.18699 8.59712C1.71469 7.91429 1.46465 7.10234 1.47099 6.27212V6.22612C1.89399 6.49812 2.38499 6.66912 2.90399 6.69212C2.45611 6.34168 2.09965 5.88812 1.86499 5.37012C1.61595 4.82678 1.488 4.2358 1.48999 3.63812C1.48999 2.95812 1.64699 2.33312 1.92199 1.78812C2.68856 2.89354 3.68325 3.82174 4.83899 4.51012C5.94131 5.16347 7.18306 5.54562 8.46199 5.62512C8.41101 5.34798 8.38458 5.0669 8.38299 4.78512C8.38299 3.81512 8.71699 2.88312 9.31199 2.19112C9.59667 1.85962 9.94661 1.59036 10.34 1.40012C10.7191 1.21762 11.1342 1.12196 11.555 1.12012C12.468 1.12012 13.292 1.56212 13.872 2.27812C14.5932 2.11427 15.2762 1.81349 15.884 1.39212C15.649 2.23712 15.154 2.95512 14.49 3.41212C15.1263 3.32735 15.7436 3.13565 16.316 2.84512C15.8946 3.56108 15.3573 4.20213 14.726 4.74212V4.74012Z" fill="white"/>
</svg>
